<svg width="27" height="27" viewBox="0 0 27 27" fill="none" xmlns="http://www.w3.org/2000/svg">
<path d="M13.5 0.5C14.3975 0.5 15.125 1.22754 15.125 2.125V11.875H24.875C25.7725 11.875 26.5 12.6025 26.5 13.5C26.5 14.3975 25.7725 15.125 24.875 15.125H15.125V24.875C15.125 25.7725 14.3975 26.5 13.5 26.5C12.6025 26.5 11.875 25.7725 11.875 24.875V15.125H2.125C1.22754 15.125 0.5 14.3975 0.5 13.5C0.5 12.6025 1.22754 11.875 2.125 11.875H11.875V2.125C11.875 1.22754 12.6025 0.5 13.5 0.5Z" fill="#E7E7E7"/>
</svg>
